solid exported
	facet normal -1 0 0
		outer loop
			vertex -0.05 0.05000000074505806 0
			vertex -0.05 0.05000000074505806 -0.05000000074505806
			vertex -0.05 0 0
		endloop
	endfacet
	facet normal -1 0 0
		outer loop
			vertex -0.05 0.05000000074505806 -0.05000000074505806
			vertex -0.05 0 -0.05000000074505806
			vertex -0.05 0 0
		endloop
	endfacet
	facet normal -1 0 0
		outer loop
			vertex -0.05 0 0
			vertex -0.05 0 -0.05000000074505806
			vertex -0.05 -0.05000000074505806 -0.05000000074505806
		endloop
	endfacet
	facet normal -1 0 0
		outer loop
			vertex -0.05 0 0
			vertex -0.05 -0.05000000074505806 -0.05000000074505806
			vertex -0.05 -0.05000000074505806 0
		endloop
	endfacet
	facet normal -1 0 0
		outer loop
			vertex -0.05 -0.05000000074505806 0
			vertex -0.05 -0.05000000074505806 0.05000000074505806
			vertex -0.05 0 0
		endloop
	endfacet
	facet normal -1 0 0
		outer loop
			vertex -0.05 -0.05000000074505806 0.05000000074505806
			vertex -0.05 0 0.05000000074505806
			vertex -0.05 0 0
		endloop
	endfacet
	facet normal -1 0 0
		outer loop
			vertex -0.05 0 0
			vertex -0.05 0 0.05000000074505806
			vertex -0.05 0.05000000074505806 0.05000000074505806
		endloop
	endfacet
	facet normal -1 0 0
		outer loop
			vertex -0.05 0 0
			vertex -0.05 0.05000000074505806 0.05000000074505806
			vertex -0.05 0.05000000074505806 0
		endloop
	endfacet
	facet normal 0 1 0
		outer loop
			vertex -0.05 0.05000000074505806 0
			vertex 0.05000000149011612 0.05000000074505806 0
			vertex -0.05 0.05000000074505806 -0.05000000074505806
		endloop
	endfacet
	facet normal 0 1 0
		outer loop
			vertex 0.05000000149011612 0.05000000074505806 0
			vertex 0.05000000149011612 0.05000000074505806 -0.05000000074505806
			vertex -0.05 0.05000000074505806 -0.05000000074505806
		endloop
	endfacet
	facet normal 0 0 -1
		outer loop
			vertex -0.05 0.05000000074505806 -0.05000000074505806
			vertex 0.05000000149011612 0.05000000074505806 -0.05000000074505806
			vertex -0.05 0 -0.05000000074505806
		endloop
	endfacet
	facet normal 0 0 -1
		outer loop
			vertex 0.05000000149011612 0.05000000074505806 -0.05000000074505806
			vertex 0.05000000149011612 0 -0.05000000074505806
			vertex -0.05 0 -0.05000000074505806
		endloop
	endfacet
	facet normal 0 0 -1
		outer loop
			vertex -0.05 0 -0.05000000074505806
			vertex 0.05000000149011612 0 -0.05000000074505806
			vertex 0.05000000149011612 -0.05000000074505806 -0.05000000074505806
		endloop
	endfacet
	facet normal 0 0 -1
		outer loop
			vertex -0.05 0 -0.05000000074505806
			vertex 0.05000000149011612 -0.05000000074505806 -0.05000000074505806
			vertex -0.05 -0.05000000074505806 -0.05000000074505806
		endloop
	endfacet
	facet normal 0 -1 0
		outer loop
			vertex -0.05 -0.05000000074505806 -0.05000000074505806
			vertex 0.05000000149011612 -0.05000000074505806 -0.05000000074505806
			vertex 0.05000000149011612 -0.05000000074505806 0
		endloop
	endfacet
	facet normal 0 -1 0
		outer loop
			vertex -0.05 -0.05000000074505806 -0.05000000074505806
			vertex 0.05000000149011612 -0.05000000074505806 0
			vertex -0.05 -0.05000000074505806 0
		endloop
	endfacet
	facet normal 0 -1 0
		outer loop
			vertex -0.05 -0.05000000074505806 0
			vertex 0.05000000149011612 -0.05000000074505806 0
			vertex -0.05 -0.05000000074505806 0.05000000074505806
		endloop
	endfacet
	facet normal 0 -1 0
		outer loop
			vertex 0.05000000149011612 -0.05000000074505806 0
			vertex 0.05000000149011612 -0.05000000074505806 0.05000000074505806
			vertex -0.05 -0.05000000074505806 0.05000000074505806
		endloop
	endfacet
	facet normal 0 0 1
		outer loop
			vertex -0.05 -0.05000000074505806 0.05000000074505806
			vertex 0.05000000149011612 -0.05000000074505806 0.05000000074505806
			vertex -0.05 0 0.05000000074505806
		endloop
	endfacet
	facet normal 0 0 1
		outer loop
			vertex 0.05000000149011612 -0.05000000074505806 0.05000000074505806
			vertex 0.05000000149011612 0 0.05000000074505806
			vertex -0.05 0 0.05000000074505806
		endloop
	endfacet
	facet normal 0 0 1
		outer loop
			vertex -0.05 0 0.05000000074505806
			vertex 0.05000000149011612 0 0.05000000074505806
			vertex 0.05000000149011612 0.05000000074505806 0.05000000074505806
		endloop
	endfacet
	facet normal 0 0 1
		outer loop
			vertex -0.05 0 0.05000000074505806
			vertex 0.05000000149011612 0.05000000074505806 0.05000000074505806
			vertex -0.05 0.05000000074505806 0.05000000074505806
		endloop
	endfacet
	facet normal 0 1 0
		outer loop
			vertex -0.05 0.05000000074505806 0.05000000074505806
			vertex 0.05000000149011612 0.05000000074505806 0.05000000074505806
			vertex 0.05000000149011612 0.05000000074505806 0
		endloop
	endfacet
	facet normal 0 1 0
		outer loop
			vertex -0.05 0.05000000074505806 0.05000000074505806
			vertex 0.05000000149011612 0.05000000074505806 0
			vertex -0.05 0.05000000074505806 0
		endloop
	endfacet
	facet normal 1 0 0
		outer loop
			vertex 0.05000000149011612 0.05000000074505806 0
			vertex 0.05000000149011612 0 0
			vertex 0.05000000149011612 0.05000000074505806 -0.05000000074505806
		endloop
	endfacet
	facet normal 1 0 0
		outer loop
			vertex 0.05000000149011612 0.05000000074505806 -0.05000000074505806
			vertex 0.05000000149011612 0 0
			vertex 0.05000000149011612 0 -0.05000000074505806
		endloop
	endfacet
	facet normal 1 0 0
		outer loop
			vertex 0.05000000149011612 0 -0.05000000074505806
			vertex 0.05000000149011612 0 0
			vertex 0.05000000149011612 -0.05000000074505806 -0.05000000074505806
		endloop
	endfacet
	facet normal 1 0 0
		outer loop
			vertex 0.05000000149011612 -0.05000000074505806 -0.05000000074505806
			vertex 0.05000000149011612 0 0
			vertex 0.05000000149011612 -0.05000000074505806 0
		endloop
	endfacet
	facet normal 1 0 0
		outer loop
			vertex 0.05000000149011612 -0.05000000074505806 0
			vertex 0.05000000149011612 0 0
			vertex 0.05000000149011612 -0.05000000074505806 0.05000000074505806
		endloop
	endfacet
	facet normal 1 0 0
		outer loop
			vertex 0.05000000149011612 -0.05000000074505806 0.05000000074505806
			vertex 0.05000000149011612 0 0
			vertex 0.05000000149011612 0 0.05000000074505806
		endloop
	endfacet
	facet normal 1 0 0
		outer loop
			vertex 0.05000000149011612 0 0.05000000074505806
			vertex 0.05000000149011612 0 0
			vertex 0.05000000149011612 0.05000000074505806 0.05000000074505806
		endloop
	endfacet
	facet normal 1 0 0
		outer loop
			vertex 0.05000000149011612 0.05000000074505806 0.05000000074505806
			vertex 0.05000000149011612 0 0
			vertex 0.05000000149011612 0.05000000074505806 0
		endloop
	endfacet
endsolid exported
