solid
 facet normal  -1.0000000000e+00 0.0000000000e+00 0.0000000000e+00
   outer loop
     vertex 0.0000000000e+00 5.0000000000e-02 0.0000000000e+00
     vertex 0.0000000000e+00 5.0000000000e-02 -5.0000000000e-02
     vertex 0.0000000000e+00 0.0000000000e+00 0.0000000000e+00
   endloop
 endfacet
 facet normal  -1.0000000000e+00 0.0000000000e+00 0.0000000000e+00
   outer loop
     vertex 0.0000000000e+00 5.0000000000e-02 -5.0000000000e-02
     vertex 0.0000000000e+00 0.0000000000e+00 -5.0000000000e-02
     vertex 0.0000000000e+00 0.0000000000e+00 0.0000000000e+00
   endloop
 endfacet
 facet normal  -1.0000000000e+00 0.0000000000e+00 0.0000000000e+00
   outer loop
     vertex 0.0000000000e+00 0.0000000000e+00 0.0000000000e+00
     vertex 0.0000000000e+00 0.0000000000e+00 -5.0000000000e-02
     vertex 0.0000000000e+00 -5.0000000000e-02 -5.0000000000e-02
   endloop
 endfacet
 facet normal  -1.0000000000e+00 0.0000000000e+00 0.0000000000e+00
   outer loop
     vertex 0.0000000000e+00 0.0000000000e+00 0.0000000000e+00
     vertex 0.0000000000e+00 -5.0000000000e-02 -5.0000000000e-02
     vertex 0.0000000000e+00 -5.0000000000e-02 0.0000000000e+00
   endloop
 endfacet
 facet normal  -1.0000000000e+00 0.0000000000e+00 0.0000000000e+00
   outer loop
     vertex 0.0000000000e+00 -5.0000000000e-02 0.0000000000e+00
     vertex 0.0000000000e+00 -5.0000000000e-02 5.0000000000e-02
     vertex 0.0000000000e+00 0.0000000000e+00 0.0000000000e+00
   endloop
 endfacet
 facet normal  -1.0000000000e+00 -0.0000000000e+00 -0.0000000000e+00
   outer loop
     vertex 0.0000000000e+00 -5.0000000000e-02 5.0000000000e-02
     vertex 0.0000000000e+00 0.0000000000e+00 5.0000000000e-02
     vertex 0.0000000000e+00 0.0000000000e+00 0.0000000000e+00
   endloop
 endfacet
 facet normal  -1.0000000000e+00 0.0000000000e+00 0.0000000000e+00
   outer loop
     vertex 0.0000000000e+00 0.0000000000e+00 0.0000000000e+00
     vertex 0.0000000000e+00 0.0000000000e+00 5.0000000000e-02
     vertex 0.0000000000e+00 5.0000000000e-02 5.0000000000e-02
   endloop
 endfacet
 facet normal  -1.0000000000e+00 0.0000000000e+00 -0.0000000000e+00
   outer loop
     vertex 0.0000000000e+00 0.0000000000e+00 0.0000000000e+00
     vertex 0.0000000000e+00 5.0000000000e-02 5.0000000000e-02
     vertex 0.0000000000e+00 5.0000000000e-02 0.0000000000e+00
   endloop
 endfacet
 facet normal  0.0000000000e+00 1.0000000000e+00 0.0000000000e+00
   outer loop
     vertex 0.0000000000e+00 5.0000000000e-02 0.0000000000e+00
     vertex 1.0000000000e-01 5.0000000000e-02 0.0000000000e+00
     vertex 0.0000000000e+00 5.0000000000e-02 -5.0000000000e-02
   endloop
 endfacet
 facet normal  0.0000000000e+00 1.0000000000e+00 -0.0000000000e+00
   outer loop
     vertex 1.0000000000e-01 5.0000000000e-02 0.0000000000e+00
     vertex 1.0000000000e-01 5.0000000000e-02 -5.0000000000e-02
     vertex 0.0000000000e+00 5.0000000000e-02 -5.0000000000e-02
   endloop
 endfacet
 facet normal  -0.0000000000e+00 0.0000000000e+00 -1.0000000000e+00
   outer loop
     vertex 0.0000000000e+00 5.0000000000e-02 -5.0000000000e-02
     vertex 1.0000000000e-01 5.0000000000e-02 -5.0000000000e-02
     vertex 0.0000000000e+00 0.0000000000e+00 -5.0000000000e-02
   endloop
 endfacet
 facet normal  0.0000000000e+00 0.0000000000e+00 -1.0000000000e+00
   outer loop
     vertex 1.0000000000e-01 5.0000000000e-02 -5.0000000000e-02
     vertex 1.0000000000e-01 0.0000000000e+00 -5.0000000000e-02
     vertex 0.0000000000e+00 0.0000000000e+00 -5.0000000000e-02
   endloop
 endfacet
 facet normal  -0.0000000000e+00 -0.0000000000e+00 -1.0000000000e+00
   outer loop
     vertex 0.0000000000e+00 0.0000000000e+00 -5.0000000000e-02
     vertex 1.0000000000e-01 0.0000000000e+00 -5.0000000000e-02
     vertex 1.0000000000e-01 -5.0000000000e-02 -5.0000000000e-02
   endloop
 endfacet
 facet normal  0.0000000000e+00 0.0000000000e+00 -1.0000000000e+00
   outer loop
     vertex 0.0000000000e+00 0.0000000000e+00 -5.0000000000e-02
     vertex 1.0000000000e-01 -5.0000000000e-02 -5.0000000000e-02
     vertex 0.0000000000e+00 -5.0000000000e-02 -5.0000000000e-02
   endloop
 endfacet
 facet normal  0.0000000000e+00 -1.0000000000e+00 0.0000000000e+00
   outer loop
     vertex 0.0000000000e+00 -5.0000000000e-02 -5.0000000000e-02
     vertex 1.0000000000e-01 -5.0000000000e-02 -5.0000000000e-02
     vertex 1.0000000000e-01 -5.0000000000e-02 0.0000000000e+00
   endloop
 endfacet
 facet normal  -0.0000000000e+00 -1.0000000000e+00 0.0000000000e+00
   outer loop
     vertex 0.0000000000e+00 -5.0000000000e-02 -5.0000000000e-02
     vertex 1.0000000000e-01 -5.0000000000e-02 0.0000000000e+00
     vertex 0.0000000000e+00 -5.0000000000e-02 0.0000000000e+00
   endloop
 endfacet
 facet normal  0.0000000000e+00 -1.0000000000e+00 0.0000000000e+00
   outer loop
     vertex 0.0000000000e+00 -5.0000000000e-02 0.0000000000e+00
     vertex 1.0000000000e-01 -5.0000000000e-02 0.0000000000e+00
     vertex 0.0000000000e+00 -5.0000000000e-02 5.0000000000e-02
   endloop
 endfacet
 facet normal  -0.0000000000e+00 -1.0000000000e+00 -0.0000000000e+00
   outer loop
     vertex 1.0000000000e-01 -5.0000000000e-02 0.0000000000e+00
     vertex 1.0000000000e-01 -5.0000000000e-02 5.0000000000e-02
     vertex 0.0000000000e+00 -5.0000000000e-02 5.0000000000e-02
   endloop
 endfacet
 facet normal  0.0000000000e+00 0.0000000000e+00 1.0000000000e+00
   outer loop
     vertex 0.0000000000e+00 -5.0000000000e-02 5.0000000000e-02
     vertex 1.0000000000e-01 -5.0000000000e-02 5.0000000000e-02
     vertex 0.0000000000e+00 0.0000000000e+00 5.0000000000e-02
   endloop
 endfacet
 facet normal  0.0000000000e+00 0.0000000000e+00 1.0000000000e+00
   outer loop
     vertex 1.0000000000e-01 -5.0000000000e-02 5.0000000000e-02
     vertex 1.0000000000e-01 0.0000000000e+00 5.0000000000e-02
     vertex 0.0000000000e+00 0.0000000000e+00 5.0000000000e-02
   endloop
 endfacet
 facet normal  0.0000000000e+00 -0.0000000000e+00 1.0000000000e+00
   outer loop
     vertex 0.0000000000e+00 0.0000000000e+00 5.0000000000e-02
     vertex 1.0000000000e-01 0.0000000000e+00 5.0000000000e-02
     vertex 1.0000000000e-01 5.0000000000e-02 5.0000000000e-02
   endloop
 endfacet
 facet normal  0.0000000000e+00 0.0000000000e+00 1.0000000000e+00
   outer loop
     vertex 0.0000000000e+00 0.0000000000e+00 5.0000000000e-02
     vertex 1.0000000000e-01 5.0000000000e-02 5.0000000000e-02
     vertex 0.0000000000e+00 5.0000000000e-02 5.0000000000e-02
   endloop
 endfacet
 facet normal  0.0000000000e+00 1.0000000000e+00 0.0000000000e+00
   outer loop
     vertex 0.0000000000e+00 5.0000000000e-02 5.0000000000e-02
     vertex 1.0000000000e-01 5.0000000000e-02 5.0000000000e-02
     vertex 1.0000000000e-01 5.0000000000e-02 0.0000000000e+00
   endloop
 endfacet
 facet normal  0.0000000000e+00 1.0000000000e+00 0.0000000000e+00
   outer loop
     vertex 0.0000000000e+00 5.0000000000e-02 5.0000000000e-02
     vertex 1.0000000000e-01 5.0000000000e-02 0.0000000000e+00
     vertex 0.0000000000e+00 5.0000000000e-02 0.0000000000e+00
   endloop
 endfacet
 facet normal  1.0000000000e+00 2.7755575616e-16 0.0000000000e+00
   outer loop
     vertex 1.0000000000e-01 5.0000000000e-02 0.0000000000e+00
     vertex 1.0000000000e-01 0.0000000000e+00 0.0000000000e+00
     vertex 1.0000000000e-01 5.0000000000e-02 -5.0000000000e-02
   endloop
 endfacet
 facet normal  1.0000000000e+00 0.0000000000e+00 0.0000000000e+00
   outer loop
     vertex 1.0000000000e-01 5.0000000000e-02 -5.0000000000e-02
     vertex 1.0000000000e-01 0.0000000000e+00 0.0000000000e+00
     vertex 1.0000000000e-01 0.0000000000e+00 -5.0000000000e-02
   endloop
 endfacet
 facet normal  1.0000000000e+00 0.0000000000e+00 0.0000000000e+00
   outer loop
     vertex 1.0000000000e-01 0.0000000000e+00 -5.0000000000e-02
     vertex 1.0000000000e-01 0.0000000000e+00 0.0000000000e+00
     vertex 1.0000000000e-01 -5.0000000000e-02 -5.0000000000e-02
   endloop
 endfacet
 facet normal  1.0000000000e+00 0.0000000000e+00 0.0000000000e+00
   outer loop
     vertex 1.0000000000e-01 -5.0000000000e-02 -5.0000000000e-02
     vertex 1.0000000000e-01 0.0000000000e+00 0.0000000000e+00
     vertex 1.0000000000e-01 -5.0000000000e-02 0.0000000000e+00
   endloop
 endfacet
 facet normal  1.0000000000e+00 -2.7755575616e-16 0.0000000000e+00
   outer loop
     vertex 1.0000000000e-01 -5.0000000000e-02 0.0000000000e+00
     vertex 1.0000000000e-01 0.0000000000e+00 0.0000000000e+00
     vertex 1.0000000000e-01 -5.0000000000e-02 5.0000000000e-02
   endloop
 endfacet
 facet normal  1.0000000000e+00 0.0000000000e+00 -0.0000000000e+00
   outer loop
     vertex 1.0000000000e-01 -5.0000000000e-02 5.0000000000e-02
     vertex 1.0000000000e-01 0.0000000000e+00 0.0000000000e+00
     vertex 1.0000000000e-01 0.0000000000e+00 5.0000000000e-02
   endloop
 endfacet
 facet normal  1.0000000000e+00 0.0000000000e+00 0.0000000000e+00
   outer loop
     vertex 1.0000000000e-01 0.0000000000e+00 5.0000000000e-02
     vertex 1.0000000000e-01 0.0000000000e+00 0.0000000000e+00
     vertex 1.0000000000e-01 5.0000000000e-02 5.0000000000e-02
   endloop
 endfacet
 facet normal  1.0000000000e+00 0.0000000000e+00 0.0000000000e+00
   outer loop
     vertex 1.0000000000e-01 5.0000000000e-02 5.0000000000e-02
     vertex 1.0000000000e-01 0.0000000000e+00 0.0000000000e+00
     vertex 1.0000000000e-01 5.0000000000e-02 0.0000000000e+00
   endloop
 endfacet
endsolid
